# xmcd CD database file
#
# Track frame offsets:
#	150
#	17397
#	32926
#	48784
#	73134
#	90231
#
# Disc length: 1911 seconds
#
# Revision: 0
# Processed by: cddbd v1.5.2PL0 Copyright (c) Steve Scherf et al.
# Submitted via: CDex 1.51
#
DISCID=3e077506
DTITLE=Buddy DeFranco And The All-Stars - Wholly Cats
DYEAR=1957
DGENRE=Jazz
TTITLE0=All The Things You Are
TTITLE1=Smoke Gets In Your Eyes
TTITLE2=I Surrender Dear
TTITLE3=More Than You Know
TTITLE4=Night And Day
TTITLE5=Wholly Cats
EXTD=YEAR: 1957
EXTT0=
EXTT1=
EXTT2=
EXTT3=
EXTT4=
EXTT5=
PLAYORDER=
